<?xml version="1.0" encoding="utf-8"?>
<!-- Generator: Adobe Illustrator 18.0.0, SVG Export Plug-In . SVG Version: 6.00 Build 0)  -->
<!DOCTYPE svg PUBLIC "-//W3C//DTD SVG 1.1//EN" "http://www.w3.org/Graphics/SVG/1.1/DTD/svg11.dtd">
<svg version="1.1" id="Layer_1" xmlns="http://www.w3.org/2000/svg" xmlns:xlink="http://www.w3.org/1999/xlink" x="0px" y="0px"
	 viewBox="0 0 826.6 290.8" enable-background="new 0 0 826.6 290.8" xml:space="preserve">
<path d="M259.1,234.1c-5.2-3.9-10.4-7.8-15.6-11.7c4.3-4.9,8.3-10.2,11.8-15.8c4.2-6.8-10.2-8.7-13.3-3.6c-2.6,4.1-5.4,8.1-8.4,11.8
	c-4.8-3.8-9.5-7.6-14.3-11.4c18.3-17.3,30.7-40.9,33.7-66c2.4-20-1.5-40.2-11.8-57.6C230.1,60.9,211,45,190.7,36.9
	c-22.6-9-48.6-9.1-72.2-4.1c-21.9,4.7-42.6,15.6-59,30.9C26.3,94.7,14,141.9,28.5,185c14.5,43.1,54.9,72.3,98.9,79.1
	c38.7,6,79.1-6.6,107.5-32.8c3.9,3,7.8,5.9,11.7,8.8c3,2.2,7.1,2.4,10.4,0.8C259.3,239.7,262,236.3,259.1,234.1z M118.9,252.1
	c-43-11.3-75.9-48.9-81.1-93c-5.3-44.7,19.5-88,59.2-108.2c20.7-10.5,44.2-13.7,67.2-10.5c22.3,3.1,42.1,16.8,56.4,33.8
	c26.7,32,21.9,79.1-1.8,111.2c-2.7,3.6-5.6,7-8.7,10.2c-9.7-8.1-19.2-16.4-28.6-24.8c-12.9-11.6-25.5-23.7-36.9-36.7
	c9-4.9,18.1-9.8,26-16.4c7.8-6.4,14.1-14.4,15-24.7c0.7-7.7-2.6-15.3-7.5-21.2c-10-12-28.5-14.2-42.9-10.9
	c-16,3.7-27.6,16-28.8,32.5c-0.9,12.4,7.9,24.4,15,33.7c1.4,1.8,2.8,3.6,4.2,5.3c-16.5,9.3-33.4,20.9-39.6,39.3
	c-6.7,19.5,2.2,39.1,19.2,49.5c21,12.8,50.8,13.1,73.6,6c11.2-3.5,21.6-8.9,30.9-15.8c5.2,4.2,10.3,8.3,15.6,12.4
	C197.8,250.9,157.5,262.3,118.9,252.1z M137.6,125.9c-7-8.5-14.5-18.5-16.1-29.1c-1-6.7,1.2-13.8,5.3-19.1c1.7-2.2,4-4.1,6.4-5.4
	c2.6-1.5,6.1-2.6,8.2-2.9c6-1,11.5-0.3,17.3,2.7c5.7,2.9,9.8,8.3,11.3,14.5C174.6,106.2,152.7,118,137.6,125.9z M200.7,204
	c-9.4,7.4-20.3,12.9-31.9,16c-20.2,5.3-48.3,2.3-62.8-14.2c-13.2-15.1-6.8-37.7,6.2-50.3c6.1-5.9,13.1-10.5,20.4-14.8
	C152.8,164,176.9,184.5,200.7,204z"/>
<path d="M535.1,209.8c4-4.6-1.1-9.2-5.4-10.4c-5.7-1.6-12.8-0.3-16.8,4.3c-2.9,3.3-5.9,6.5-9,9.6c-4.4-3.5-8.8-6.9-13.1-10.5
	c17.7-17.6,29.6-40.9,32.6-66c2.4-20.2-1.6-40.8-12-58.4c-11.4-19.3-31.2-35.8-52-44c-45.6-18.1-102.6-5.7-138.2,27.5
	c-34.2,31.9-46.9,79.9-32,124.4c15,44.7,57.2,73.9,102.5,81c39.9,6.2,79.5-5.8,111.6-28.6c1.5,1.1,3,2.3,4.5,3.4
	c4.9,3.7,11.8,3.9,17.3,1.3c3.9-1.8,8.4-7.5,3.5-11.2c-3-2.2-6-4.4-8.9-6.7C525.2,220.6,530.3,215.3,535.1,209.8z M453.6,245.9
	c-22,7.7-45,9.1-66.9,3.3c-41.4-10.9-73.3-47.6-78.4-90.5c-5.1-43.4,18.9-85.9,57-105.3c19.8-10.1,40.7-13,63.3-9.9
	c9.6,1.3,19.4,5.2,28.2,10.6c9.4,5.7,18,13.6,25,22.1c25.9,31,20.7,77.1-2.1,108c-1.5,2-3,3.9-4.6,5.7C467,183,459,176,451,168.8
	c-12.1-10.9-23.9-22.2-34.8-34.3c8.2-4.4,16.2-9,23.4-14.9c8.6-7,15.3-15.7,16.3-27c0.7-8.4-3.1-16.4-8.3-22.7
	c-11.3-13.6-32.6-15.5-48.6-11.8c-17.8,4-30.9,17.6-32.2,35.9c-0.9,12.6,8,25,15.2,34.5c0.9,1.2,1.8,2.3,2.7,3.5
	c-16.3,9.4-32.2,21.3-38.4,39.4c-3.3,9.7-2.6,20.3,0.6,29.9c3.4,9.9,11.5,17.2,20.2,22.5c10.1,6.2,22.3,8.8,33.9,10.3
	c14.9,1.8,30.3,0.6,44.6-3.9c10.3-3.2,20-7.9,28.8-13.9c4.5,3.6,9,7.2,13.6,10.7C477.5,235,465.9,241.6,453.6,245.9z M398.9,76.6
	c0.6-0.5,1.3-1,2-1.5c0.1-0.1,0.2-0.2,0.3-0.2c0,0,0.1,0,0.1-0.1c0.5-0.3,2.9-1.3,3.4-1.6c1.5-0.4,3.8-0.9,3.5-0.9
	c1-0.1,2-0.2,3-0.2c-1.9,0.1,2.4,0.2,3.4,0.3c0.1,0,0.2,0,0.3,0.1c0.8,0.2,1.6,0.4,2.4,0.6c0.2,0.1,0.9,0.3,1.3,0.5
	c0.7,0.3,1.4,0.7,2.1,1c0.5,0.3,1,0.5,1.5,0.8c-0.7-0.4,0.9,0.7,1.2,0.8c1.1,0.9,2.1,1.9,3.1,3c-0.4-0.4,0.8,1.1,0.9,1.2
	c0.5,0.7,0.9,1.4,1.3,2.1c0.9,1.7,1.5,3.5,1.7,4.4c3.9,16.3-12,26.6-25.5,33.9c-2.5-3.3-4.9-6.8-7.1-10.5c-1.5-2.5-2.9-5.2-4.1-7.9
	c-0.2-0.4-1-2.6-1.1-2.8c-0.3-1.1-0.5-2.2-0.7-3.4c-0.5-3-0.2-5.7,0.5-8.4c1-4.3,1.8-5.9,4.3-9c0.4-0.5,0.8-0.9,1.2-1.4
	C397.3,78.2,398.7,76.8,398.9,76.6z M459.7,204.1c-0.1,0.1-0.3,0.2-0.4,0.3c-4.2,3-6.7,4.5-11.2,6.8c-2.2,1.1-4.5,2.1-6.8,3
	c-2.6,1.1-4.8,1.7-8.7,2.8c-11.1,2.9-23.8,2.2-33.9-0.2c-9.1-2.1-16.8-5.8-23.2-13.1c-12-13.7-6-35.1,5.8-46.4
	c4.7-4.5,9.8-8.2,15.2-11.6C415.6,167.1,437.7,186,459.7,204.1z"/>
<path d="M793.8,230.7c0,0-3.6-2.9-10.2-8.3c0.6-0.6,1.2-1.2,1.8-1.7c1.7-1.7,3.3-3.2,4.6-4.6c1.3-1.3,2.4-2.5,3.3-3.4
	c1.7-1.8,2.6-2.7,2.6-2.7c0.2-0.3,0.5-0.6,0.7-0.8c2.6-3.6,1.9-8.6-1.7-11.2c-3.6-2.6-8.6-1.9-11.2,1.7c0,0-0.8,1-2.2,3
	c-0.7,1-1.6,2.1-2.7,3.5c-1.1,1.4-2.4,3-3.9,4.7c-0.7,0.8-1.4,1.7-2.2,2.6c-4.3-3.6-9.2-7.7-14.7-12.3c0.5-0.5,1.1-1.1,1.6-1.6
	c14.7-15.7,25.2-35.6,29.1-57.2c1-5.4,1.5-10.9,1.5-16.4c0.1-5.5-0.3-11.1-1.3-16.6c-0.9-5.5-2.4-10.9-4.2-16.1
	c-1.9-5.2-4.4-10.3-7.2-15.1c-2.9-4.8-6.1-9.3-9.8-13.4c-0.9-1-1.9-2.1-2.9-3.1c-0.5-0.5-0.9-0.9-1.4-1.4l-1.5-1.5
	c-1.9-1.8-3.9-3.6-5.9-5.3c-8.1-6.8-17.2-13-27.2-17.3c-5-2.1-10.2-3.8-15.4-5c-2.6-0.6-5.2-1.1-7.9-1.5c-2.6-0.4-5.2-0.7-7.9-0.9
	c-2.6-0.2-5.2-0.3-7.8-0.4c-1.3,0-2.7,0-3.9,0l-1.9,0l-1,0l-1,0c-5.2,0.1-10.4,0.5-15.5,1.2c-20.5,2.7-40,10.3-56.7,21.7
	c-8.3,5.7-15.9,12.3-22.7,19.7c-6.7,7.4-12.5,15.6-17.2,24.3c-4.7,8.7-8.2,17.9-10.5,27.4c-1.2,4.7-2,9.5-2.5,14.3
	c-0.3,2.4-0.5,4.8-0.6,7.3c-0.1,1.2-0.1,2.2-0.1,3.4c0,1.2,0,2.5,0,3.7c0.1,9.5,1.4,18.9,3.8,27.9c1.2,4.5,2.7,8.9,4.3,13.1
	c1.7,4.3,3.6,8.4,5.8,12.3c8.6,15.8,20.5,28.9,33.8,38.6c13.3,9.8,27.9,16.3,42.3,20.1c7.2,1.9,14.3,3.1,21.3,3.7
	c3.5,0.3,6.9,0.5,10.3,0.5c0.9,0,1.7,0,2.6,0c0.8,0,1.6,0,2.4,0l1.3,0l1.2,0c0.8,0,1.6,0,2.4-0.1c12.9-0.7,25.1-2.8,35.9-6.4
	c10.8-3.5,20.2-8.3,28.1-13.2c7.3-4.6,13.5-9.3,18.7-13.7c0.5,0.4,1,0.7,1.5,1.1c7.8,5.6,12.1,8.5,12.1,8.5l0,0
	c3.4,2.3,8,1.6,10.6-1.6C797.8,238.5,797.2,233.4,793.8,230.7z M674.3,121c-3.2-4-6.2-8.1-8.8-12.4c-1.7-2.8-3.1-5.6-4.2-8.2
	c-0.3-0.7-0.5-1.3-0.7-1.9c-0.2-0.6-0.4-1.2-0.5-1.8c-0.1-0.3-0.2-0.5-0.2-0.8c0-0.1-0.1-0.3-0.1-0.3c0,0,0-0.1,0-0.1
	c0-0.1,0,0,0-0.2l-0.1-0.7c0,0.3,0-0.1,0,0l0-0.3l-0.1-1.1c-0.2-2.8,0-5.6,0.7-8.4c0.7-2.7,2.1-5.4,4.2-7.6c2.1-2.3,4.9-4.1,8-5.3
	c3.2-1.2,6.6-1.8,10.1-1.7c7,0.1,13.9,3.2,18.1,7.6c2.1,2.2,3.7,4.7,4.6,7.6c0.4,1.4,0.7,3,0.9,4.5l0.1,1l0,1.6c0-0.3,0,0.1,0,0
	l0,0.2c0,0.2,0,0.3,0,0.5c0,0.3-0.1,0.6-0.2,0.9c-0.5,2.5-1.9,5.2-4.2,7.8c-2.2,2.6-5.1,5.2-8.4,7.5
	C687.7,113.9,681.2,117.5,674.3,121z M668.2,146c0.1-0.1,0.3-0.2,0.4-0.3c7,7.9,14.1,14.9,20.9,21.5c9.1,8.8,18,16.6,26.2,23.6
	c6.3,5.4,12.4,10.4,18,14.9c-1.7,1.2-3.5,2.4-5.4,3.5c-4.1,2.4-8.4,4.5-12.8,6.1c-1.1,0.4-2.3,0.8-3.3,1.2l-1.8,0.6
	c-0.5,0.2-1.1,0.3-1.6,0.5c-2.3,0.6-4.5,1.2-6.8,1.6c-4.6,0.8-9.2,1.1-13.8,0.9l-0.9,0c0,0-0.3,0-0.4,0l-0.5,0l-1.9-0.1
	c-1.2-0.1-2.3-0.2-3.4-0.4c-2.3-0.3-4.6-0.6-6.9-1.1c-9-1.8-17.5-5-24-9.6c-1.6-1.2-3.1-2.4-4.4-3.6c-1.3-1.3-2.5-2.7-3.5-4.1
	c-1.1-1.4-1.9-2.9-2.6-4.5c-0.7-1.6-1.3-3.2-1.6-4.9c-0.4-1.7-0.6-3.5-0.7-5.4l0-1.4l0-1.6l0.1-1.2l0.1-1.3
	c0.4-3.6,1.5-6.9,3.2-10.1c1.7-3.2,4.1-6.3,6.8-9.2c2.8-2.9,6-5.6,9.4-8.2C660.8,150.7,664.5,148.3,668.2,146z M745.5,237.5
	c-7.1,4.7-15.5,8.9-25.2,11.9c-9.7,3-20.7,4.6-32.6,4.7c-1.5,0-2.9,0-4.4-0.1c-0.8,0-1.6-0.1-2.4-0.1c-0.8,0-1.5-0.1-2.2-0.1
	c-3-0.2-6.1-0.6-9.1-1c-6.1-1-12.4-2.4-18.5-4.5c-6.2-2.1-12.3-4.8-18.3-8.1c-5.9-3.3-11.7-7.2-17.2-11.7
	c-10.9-9-20.5-20.3-27.6-33.5c-7.1-13.2-11.6-28.4-12.4-44.4c-0.8-16,2-32.7,9.1-48.3c7-15.6,18.4-29.9,32.9-40.6
	c3.6-2.7,7.4-5.2,11.4-7.4c4-2.2,8.1-4.2,12.4-5.9c4.3-1.7,8.7-3.2,13.2-4.3c4.5-1.2,9.1-2.1,13.7-2.6c4.6-0.6,9.3-0.8,14-0.8l0.9,0
	l0.9,0l1.9,0c1.2,0,2.3,0.1,3.5,0.2c2.4,0.2,4.7,0.3,7.1,0.6c9.4,1.1,18.4,3.5,26.7,7.5c8.3,4,15.9,9.5,22.9,16
	c1.8,1.6,3.5,3.3,5.3,5l2.4,2.5c0.7,0.9,1.5,1.6,2.2,2.5c2.9,3.6,5.6,7.3,8,11.3c2.3,4,4.2,8.2,5.9,12.5c1.6,4.3,2.8,8.8,3.6,13.3
	c0.8,4.6,1.3,9.2,1.4,13.9c0.1,4.7-0.2,9.4-0.9,14c-2.6,18.7-10.9,36.9-23.5,51.2c-0.6,0.7-1.2,1.4-1.8,2
	c-13-11.1-28.3-24.5-44.9-40.5c-5.6-5.4-11.3-11.2-16.9-17.2c5.9-3.4,11.7-7.1,17.3-11.6c3.9-3.1,7.7-6.6,11-10.9
	c1.7-2.2,3.2-4.5,4.5-7.2c1.3-2.6,2.2-5.6,2.7-8.6c0.1-0.8,0.2-1.5,0.3-2.3c0-0.4,0-0.8,0.1-1.2l0-0.6l0-0.8l-0.1-1.6l-0.2-2.2
	c-0.3-2.8-1-5.5-1.9-8.2c-1.9-5.3-5.4-10.1-9.6-13.5c-4.2-3.5-9.1-5.7-13.9-7c-4.8-1.3-9.7-1.7-14.5-1.5c-4.8,0.2-9.4,1-13.9,2.4
	c-4.5,1.5-8.9,3.6-12.8,6.5c-3.9,2.9-7.5,6.7-10,11c-2.5,4.4-4.1,9.3-4.7,14c-0.1,0.6-0.1,1.2-0.2,1.8l0,0.4c0,0.2,0,0.1,0,0.7
	l0,0.7c0,0.1,0,0.4,0,0.6l0,0.6c0,0.5,0,0.8,0.1,1.1c0,0.7,0.1,1.4,0.2,2c0.4,2.6,1,5,1.8,7.2c1.6,4.4,3.6,8.1,5.6,11.6
	c2.5,4.2,5.2,8,7.9,11.7c-3.5,2.1-7,4.3-10.4,6.7c-2.1,1.5-4.1,3-6.2,4.7c-2,1.7-4,3.5-5.9,5.4c-3.8,3.9-7.5,8.3-10.3,13.6
	c-2.8,5.2-4.8,11.2-5.5,17.1c-0.1,0.8-0.2,1.5-0.2,2.3c0,0.8-0.1,1.7-0.1,2.4l0,2l0.1,2.2c0.1,3,0.5,6,1.2,9c1.3,6,4.1,11.9,8,16.9
	c1.9,2.5,4.1,4.7,6.4,6.7c2.4,1.9,4.8,3.7,7.4,5.1c5.1,2.9,10.5,4.8,15.9,6.2c5.4,1.3,10.8,2.1,16.1,2.4c2.7,0.2,5.3,0.2,8,0.2
	c1.3,0,2.7,0,4-0.1l1.9-0.1l1,0l1-0.1c5.4-0.3,10.8-1.1,16-2.3c14.1-3.1,27.3-9.3,39-17.7c6.1,4.8,11.6,9,16.5,12.6
	C755.9,229.9,751.1,233.8,745.5,237.5z"/>
<path fill="none" stroke="#000000" stroke-miterlimit="10" d="M796.2,211.3"/>
<path fill="none" stroke="#000000" stroke-miterlimit="10" d="M635.4,196.6"/>
</svg>
